<svg id="Layer_1" data-name="Layer 1" xmlns="http://www.w3.org/2000/svg" xmlns:xlink="http://www.w3.org/1999/xlink" viewBox="0 0 798.4 798.4"><defs><style>.cls-1{fill:url(#linear-gradient);}.cls-2,.cls-3,.cls-4{fill:#fff;}.cls-2,.cls-3{stroke:#fff;stroke-miterlimit:10;stroke-width:13px;}.cls-3{fill-rule:evenodd;}.cls-4{font-size:174.18px;font-family:PottaOne-Regular, Potta One;}</style><linearGradient id="linear-gradient" x1="117.62" y1="640.84" x2="676.58" y2="161.17" gradientUnits="userSpaceOnUse"><stop offset="0" stop-color="#70c27f"/><stop offset="0.38" stop-color="#41ad64"/><stop offset="0.76" stop-color="#15994a"/></linearGradient></defs><title>logo</title><circle class="cls-1" cx="399.2" cy="399.2" r="399.2"/><path class="cls-2" d="M552.62,290.71l-.35.36-8.52,8.5-.71.7.36.35.35-.35,4.6-4.61,4.62-4.59Zm-70.68-53.07h0l-8.5-8.52,8.52-8.51,8.5,8.52,53.31,53.4.35-.35-.35-.35-52.6-52.7-.36-.35-4.24-4.25-4.26-4.27-.35-.35-4.6,4.6-5,5,.34.34,8.51,8.53L238.09,481.06l-.49.49-.5.5v.72l1-1L481.59,238.7l.35-.35L534.54,291l-.35.35.35.36.36-.36.35-.35-17.77-17.79ZM290.2,535l-.5.5h.64l.51-.5.5-.49h-.65Zm-13,13-.5.5-.86.86-50,18.79-.52.19-.5.2L191.45,581,204,547.6l.2-.52.18-.51,18.83-50,.86-.86.5-.5.49-.49V494l-2.2,2.21-18.85,50-5-5L179.46,593l51.86-19.51-5-5L276,549.76l1.33-1.33.5-.5.49-.5h-.64Z" transform="translate(-0.8 -0.8)"/><path class="cls-2" d="M517.48,273.25l-35.54-35.61h0l-.34.34-.35.36L238.09,481.06l-.49.49-.5.5v1.41l.5-.5.49-.5L481.93,239.05l51.91,52,.7.71.36-.36.35-.35ZM290,534.47l-.5.49-.51.5h1.36l.51-.5.5-.49Zm-13,13-1.42,1.42L225.5,567.69l-.51.19-.51.19L192.3,580.18,204.42,548l.19-.52.2-.52,18.86-50.09.44-.43,1-1V494l-2.2,2.21-18.85,50-.19.52-.2.51-13.07,34.66,34.67-13,.5-.19.52-.18L276,549.76l1.33-1.33.5-.5.49-.5ZM517.48,273.25l-35.54-35.61h0l-.34.34-.35.36L238.09,481.06l-.49.49-.5.5v1.41l.5-.5.49-.5L481.93,239.05l51.91,52,.7.71.36-.36.35-.35ZM290,534.47l-.5.49-.51.5h1.36l.51-.5.5-.49Zm-13,13-1.42,1.42L225.5,567.69l-.51.19-.51.19L192.3,580.18,204.42,548l.19-.52.2-.52,18.86-50.09.44-.43,1-1V494l-2.2,2.21-18.85,50-.19.52-.2.51-13.07,34.66,34.67-13,.5-.19.52-.18L276,549.76l1.33-1.33.5-.5.49-.5ZM553.31,290.7l-.34-.34-.7.71-8.52,8.5-.71.7.36.35.35.35,9.93-9.9Zm-71.37-53.06h0l-.34.34-.35.36L238.09,481.06l-.49.49-.5.5v1.41l.5-.5.49-.5L481.93,239.05l51.91,52,.7.71.36-.36.35-.35-17.77-17.79Zm-9.21-7.82.35-.35.35-.34,8.52-8.51,8.5,8.52,53.31,53.4.7-.7-.7-.7-51.9-52-.7-.7-8.5-8.52-.71-.71L472,229.12l.37.36ZM290,534.47l-.5.49-.51.5h1.36l.51-.5.5-.49Zm-13,13-1.42,1.42L225.5,567.69l-.51.19-.51.19L192.3,580.18,204.42,548l.19-.52.2-.52,18.86-50.09.44-.43,1-1V494l-2.2,2.21-18.85,50-.19.52-.2.51-13.07,34.66,34.67-13,.5-.19.52-.18L276,549.76l1.33-1.33.5-.5.49-.5Z" transform="translate(-0.8 -0.8)"/><path class="cls-2" d="M576.89,200.41l-4.26-4.26a46.86,46.86,0,0,0-66.1-.06l-23.87,23.83,8.5,8.52L515,204.61a34.83,34.83,0,0,1,49.09,0l4.26,4.27a34.85,34.85,0,0,1,0,49.1l-23.87,23.82-.7.7-53.31-53.4-8.5-8.52-8.52,8.51,8.5,8.52h0l35.54,35.61L535.25,291l-.35.35-.36.36-.7-.71L290,534.47h1.36l-.5.49-.51.5H277.78V521.88l-13.58,0,0-13.57H250.65V494.69H237.09V482.05l.5-.5.49-.49L481.24,238.35l-8.51-8.53-.34-.34-.37-.36L212.72,488l-1.54,2.4L168.32,604.15,282,561.42l2.4-1.52L543.75,301l-.35-.35-.36-.35.71-.7,8.52-8.5.7-.71,23.87-23.83a46.87,46.87,0,0,0,0-66.12Zm-351.79,295-.49.49v11.23h13.58l0,7.1v6.48h13.58v13.58H265.3v13.58H276.5l.49-.5h1.36l-.49.5-.5.5L276,549.76l-49.75,18.71,5,5L179.46,593,199,541.15l5,5,18.85-50,2.2-2.21Z" transform="translate(-0.8 -0.8)"/><polygon class="cls-2" points="223.81 493.72 224.31 493.22 224.31 494.63 223.81 495.12 223.81 493.72"/><polygon class="cls-2" points="277.55 546.64 277.06 547.13 275.7 547.13 276.19 546.64 277.55 546.64"/><polygon class="cls-2" points="290.05 534.16 289.55 534.67 288.19 534.67 276.98 534.65 276.99 521.08 263.42 521.06 263.43 507.48 249.85 507.47 249.86 493.89 236.29 493.88 236.3 482.66 236.3 481.25 236.8 480.75 236.8 482.16 236.79 486.31 236.79 493.39 243.87 493.39 250.37 493.4 250.35 499.89 250.35 506.98 257.44 506.98 263.93 506.99 263.92 513.48 263.92 520.56 271 520.58 277.5 520.58 277.48 527.07 277.48 534.15 284.56 534.16 290.05 534.16"/><path class="cls-2" d="M290,534.47l-11.22,0,0-13.56-13.58,0V507.28H251.65V493.69H238.08V481.06l-.49.49-.5.5v12.63h13.57v13.58h13.58l0,13.57,13.58,0v13.57h12.56l.51-.5.5-.49Zm-13,13-.49.5H265.29V534.34H251.73V520.75H238.16v-6.48l0-7.1H224.6V495.92l.49-.49V494l-1,1v12.64h13.57v13.57l13.58,0,0,13.57H264.8v13.58h12.57l.5-.5.49-.5Z" transform="translate(-0.8 -0.8)"/><polygon class="cls-3" points="229.62 572.52 179.52 591.38 198.41 541.26 229.62 572.52"/><path class="cls-2" d="M226.28,568.47l-.78-.78L204.81,547l-.76-.76-5-5L179.46,593l51.86-19.51Zm-22.62-21.25.38.38.38.39,20.06,20.08.39.4.39.37,4.26,4.28-48.34,18.21L199.41,543Z" transform="translate(-0.8 -0.8)"/><path class="cls-2" d="M577.25,200.06,573,195.8A47.13,47.13,0,0,0,539.6,182h-.05a47.08,47.08,0,0,0-33.38,13.76L482.3,219.56l-.35.36-4.6,4.6-4.62,4.6.35.35,4.25,4.27,4.26,4.25.35.36L534.54,291l.36.35.35-.35-17.77-17.79-35.54-35.61h0l-8.5-8.52,8.52-8.51,8.5,8.52,53.31,53.4.7-.7L568.33,258a34.85,34.85,0,0,0,0-49.1l-4.26-4.27a34.83,34.83,0,0,0-49.09,0l-23.87,23.83-8.5-8.52,23.87-23.83a46.86,46.86,0,0,1,66.1.06l4.26,4.26a46.87,46.87,0,0,1,0,66.12L553,290.36l-.7.71-8.52,8.5-.35.35.35.35,9.21-9.22.35-.35,23.88-23.82a47.39,47.39,0,0,0,.06-66.82Zm-85.74,28.73L515.38,205A34,34,0,0,1,539.59,195a34.48,34.48,0,0,1,12.88,2.49,34,34,0,0,1,11.3,7.49l4.26,4.27a34.34,34.34,0,0,1,0,48.4l-23.87,23.82-.35.35-52.6-52.7Z" transform="translate(-0.8 -0.8)"/><path class="cls-2" d="M568.38,208.92l-4.26-4.27a34.83,34.83,0,0,0-49.09,0l-23.87,23.83-.71.7,53.31,53.4.7-.7L568.33,258a34.85,34.85,0,0,0,0-49.1Zm-28.79-13.41a33.46,33.46,0,0,1,23.83,9.85l4.26,4.26a33.85,33.85,0,0,1,0,47.69l-23.87,23.83-51.9-52,23.87-23.82A33.53,33.53,0,0,1,539.59,195.51Zm28.79,13.41-4.26-4.27a34.83,34.83,0,0,0-49.09,0l-23.87,23.83-.71.7,53.31,53.4.7-.7L568.33,258a34.85,34.85,0,0,0,0-49.1Zm-28.79-13.41a33.46,33.46,0,0,1,23.83,9.85l4.26,4.26a33.85,33.85,0,0,1,0,47.69l-23.87,23.83-51.9-52,23.87-23.82A33.53,33.53,0,0,1,539.59,195.51Zm38,4.19-4.25-4.25a47.89,47.89,0,0,0-67.53-.06L482,219.21,472,229.12l.37.36.34.34,8.51,8.53.35.35.34.35,51.91,52,.7.71.36-.36.35-.35-17.77-17.79-35.55-35.6-8.5-8.52,8.52-8.51.71-.7,23.87-23.83a46.86,46.86,0,0,1,66.1.06l4.26,4.26a46.87,46.87,0,0,1,0,66.12L553,290.36l-.7.71-8.52,8.5-.71.7.36.35.35.35,9.93-9.9,23.87-23.84a47.87,47.87,0,0,0,.05-67.53Zm-33.14,82.14L568.33,258a34.85,34.85,0,0,0,0-49.1l-4.26-4.27a34.83,34.83,0,0,0-49.09,0l-23.87,23.83-.71.7,53.31,53.4Zm-4.87-86.33a33.46,33.46,0,0,1,23.83,9.85l4.26,4.26a33.85,33.85,0,0,1,0,47.69l-23.87,23.83-51.9-52,23.87-23.82A33.53,33.53,0,0,1,539.59,195.51Z" transform="translate(-0.8 -0.8)"/><text class="cls-4" transform="translate(445.72 590.52)">樹</text></svg>